<svg width="18" height="18" viewBox="0 0 18 18" fill="none" xmlns="http://www.w3.org/2000/svg">
<path d="M9 0C13.9706 0 18 4.02944 18 9C18 13.9706 13.9706 18 9 18C4.02944 18 0 13.9706 0 9C0 4.02944 4.02944 0 9 0ZM13.4805 5.89062C13.4148 5.33865 12.7455 5.45987 12.373 5.58398C10.4588 6.3124 8.56344 7.09442 6.67578 7.89062C5.57846 8.37677 4.40366 8.86092 3.35156 9.44043C2.83944 9.81561 3.71025 10.0635 4.30469 10.3096C4.96776 10.5133 5.74092 10.8251 6.4043 10.46C7.70298 9.71394 8.90493 8.81368 10.1367 7.96484C10.361 7.82135 11.0406 7.35377 10.8105 7.90918C9.95784 8.84164 9.00323 9.59478 8.10352 10.4814C7.7881 10.7378 7.46054 11.2534 7.81348 11.6123C8.89198 12.3673 9.99349 13.098 11.0859 13.8359C11.5405 14.1987 12.2507 13.905 12.3506 13.3379C12.6406 11.6354 12.938 9.93272 13.1953 8.22461C13.2967 7.44813 13.4445 6.67168 13.4805 5.89062Z" fill="#D7B399"/>
</svg>
