<svg width="19" height="19" viewBox="0 0 19 19" fill="none" xmlns="http://www.w3.org/2000/svg">
<path d="M11.7627 0C16.8057 0 18 1.19426 18 6.2373V11.7627C18 16.8057 16.8057 18 11.7627 18H6.2373C1.19426 18 0 16.8057 0 11.7627V6.2373C0 1.19426 1.19426 0 6.2373 0H11.7627ZM3.46777 5.70312C3.08685 5.70318 3.02344 5.88175 3.02344 6.07227C3.0237 6.41593 3.46844 8.14301 5.09375 10.4287C6.1735 11.9912 7.71109 12.8301 9.0957 12.8301C9.93334 12.83 10.0351 12.6395 10.0352 12.3223V11.1406C10.0352 10.7597 10.1115 10.6964 10.3779 10.6963C10.5685 10.6963 10.9117 10.7975 11.6865 11.5469C12.5756 12.436 12.7283 12.8427 13.2236 12.8428H14.5322C14.9133 12.8428 15.0909 12.6516 14.9893 12.2832C14.8747 11.9149 14.4432 11.3817 13.8848 10.7471C13.5799 10.3914 13.1222 9.99719 12.9824 9.80664C12.792 9.55268 12.8428 9.45111 12.9824 9.22266C12.9699 9.22244 14.57 6.96158 14.7354 6.19922C14.8243 5.91979 14.7355 5.71587 14.3418 5.71582H13.0332C12.703 5.71583 12.5508 5.89442 12.4619 6.08496C12.4547 6.10232 11.7834 7.71598 10.8486 8.76465C10.5438 9.06952 10.4034 9.17188 10.2383 9.17188C10.1494 9.17163 10.0352 9.06917 10.0352 8.79004V6.18652C10.0352 5.85626 9.93374 5.70313 9.6543 5.70312H7.59668C7.39343 5.70312 7.2666 5.85635 7.2666 6.00879C7.26694 6.32603 7.73619 6.40252 7.78711 7.29102V9.22266C7.78706 9.64126 7.71077 9.71768 7.5459 9.71777C7.1013 9.71777 6.0209 8.0792 5.37305 6.21191C5.24602 5.84353 5.11934 5.70312 4.78906 5.70312H3.46777Z" fill="#D7B399"/>
</svg>
