<svg width="18" height="18" viewBox="0 0 18 18" fill="none" xmlns="http://www.w3.org/2000/svg">
<path d="M9 0C13.9706 0 18 4.02944 18 9C18 13.9706 13.9706 18 9 18C4.02944 18 0 13.9706 0 9C0 4.02944 4.02944 0 9 0ZM9.3584 3.375C7.5761 3.37502 6.08203 4.55683 6.08203 6.91504C6.08209 8.59794 6.74245 9.5112 7.73535 10.0176L5.625 14.625H7.03027L8.94629 10.3154H9.9541V14.625H11.166V3.375H9.3584ZM9.9541 9.30762H9.30859C8.25621 9.30754 7.38776 8.72687 7.3877 6.91504C7.3877 5.04348 8.33559 4.39755 9.30859 4.39746H9.9541V9.30762Z" fill="#D7B399"/>
</svg>
